<?xml version="1.0" encoding="UTF-8" ?>
<!DOCTYPE svg PUBLIC "-//W3C//DTD SVG 1.1//EN" "http://www.w3.org/Graphics/SVG/1.1/DTD/svg11.dtd">
<svg width="32pt" height="32pt" viewBox="0 0 32 32" version="1.1" xmlns="http://www.w3.org/2000/svg">
<g id="#150c05e5">
<path fill="#150c05" stroke="#150c05" stroke-width="0.09375" opacity="0.90" d=" M 15.73 0.00 L 20.21 0.00 C 21.44 0.42 22.65 0.88 23.87 1.33 C 22.84 7.69 24.77 13.98 25.13 20.30 C 25.27 22.38 23.69 23.95 22.54 25.48 C 22.62 23.24 22.72 21.00 22.81 18.76 C 24.43 12.35 21.72 6.04 16.39 2.48 C 12.09 8.54 6.39 15.59 8.43 23.53 C 9.57 21.16 10.70 18.79 11.74 16.37 L 12.05 15.65 C 13.24 15.59 14.42 15.53 15.61 15.52 C 15.95 15.67 16.64 15.96 16.98 16.11 C 17.89 16.59 18.82 17.04 19.75 17.47 C 19.58 17.98 19.24 18.99 19.06 19.49 C 18.36 21.39 17.68 23.31 17.00 25.23 C 18.36 24.52 19.72 23.81 21.08 23.09 C 20.28 24.33 19.40 25.52 18.44 26.65 C 14.42 25.63 10.41 24.56 6.42 23.44 C 7.49 25.82 8.63 28.17 9.80 30.51 C 13.48 29.79 17.18 29.04 20.67 27.64 C 19.48 29.06 18.34 30.53 17.20 32.00 L 16.70 32.00 C 15.56 30.60 13.53 29.94 12.04 31.25 C 11.36 31.26 10.00 31.28 9.33 31.29 C 8.48 27.68 5.22 30.58 8.55 32.00 L 6.17 32.00 C 5.69 26.87 5.17 21.75 4.67 16.63 C 8.62 11.27 12.44 5.80 15.73 0.00 M 6.04 16.51 C 4.55 16.55 4.16 19.27 5.81 19.33 C 7.24 19.24 7.69 16.59 6.04 16.51 M 12.69 16.98 C 11.96 19.51 11.32 22.08 11.02 24.71 C 11.53 24.51 12.53 24.11 13.04 23.91 L 12.39 24.42 C 13.61 24.37 14.83 24.30 16.05 24.23 C 16.50 22.88 16.96 21.53 17.41 20.18 C 16.95 19.12 16.49 18.05 16.02 16.99 C 15.19 16.99 13.52 16.98 12.69 16.98 Z" />
</g>
<g id="#f89432ff">
<path fill="#f89432" stroke="#f89432" stroke-width="0.09375" opacity="1.00" d=" M 16.39 2.48 C 21.72 6.04 24.43 12.35 22.81 18.76 C 22.30 20.23 21.72 21.67 21.08 23.09 C 19.72 23.81 18.36 24.52 17.00 25.23 C 17.68 23.31 18.36 21.39 19.06 19.49 C 19.82 17.69 20.61 15.90 21.32 14.09 C 21.70 13.12 22.07 12.15 22.44 11.18 C 20.14 10.64 15.53 9.56 13.23 9.02 C 12.74 9.86 12.25 10.70 11.77 11.54 C 11.47 12.04 10.89 13.03 10.59 13.53 C 9.41 14.55 9.86 17.02 11.74 16.37 C 10.70 18.79 9.57 21.16 8.43 23.53 C 6.39 15.59 12.09 8.54 16.39 2.48 Z" />
</g>
<g id="#000000ff">
<path fill="#000000" stroke="#000000" stroke-width="0.09375" opacity="1.00" d=" M 13.23 9.02 C 15.53 9.56 20.14 10.64 22.44 11.18 C 22.07 12.15 21.70 13.12 21.32 14.09 C 18.15 13.19 14.96 12.34 11.77 11.54 C 12.25 10.70 12.74 9.86 13.23 9.02 Z" />
</g>
<g id="#d67430ff">
<path fill="#d67430" stroke="#d67430" stroke-width="0.09375" opacity="1.00" d=" M 10.59 13.53 C 10.89 13.03 11.47 12.04 11.77 11.54 C 14.96 12.34 18.15 13.19 21.32 14.09 C 20.61 15.90 19.82 17.69 19.06 19.49 C 19.24 18.99 19.58 17.98 19.75 17.47 C 21.43 14.93 17.93 13.14 16.98 16.11 C 16.64 15.96 15.95 15.67 15.61 15.52 C 13.96 14.80 12.29 14.14 10.59 13.53 Z" />
</g>
<g id="#ffffffff">
<path fill="#ffffff" stroke="#ffffff" stroke-width="0.09375" opacity="1.00" d=" M 10.59 13.53 C 12.29 14.14 13.96 14.80 15.61 15.52 C 14.42 15.53 13.24 15.59 12.05 15.65 C 11.69 15.12 10.96 14.06 10.59 13.53 Z" />
<path fill="#ffffff" stroke="#ffffff" stroke-width="0.09375" opacity="1.00" d=" M 16.98 16.11 C 17.93 13.14 21.43 14.93 19.75 17.47 C 18.82 17.04 17.89 16.59 16.98 16.11 Z" />
<path fill="#ffffff" stroke="#ffffff" stroke-width="0.09375" opacity="1.00" d=" M 8.55 32.00 C 5.22 30.58 8.48 27.68 9.33 31.29 L 9.24 32.00 L 8.55 32.00 Z" />
<path fill="#ffffff" stroke="#ffffff" stroke-width="0.09375" opacity="1.00" d=" M 12.04 31.25 C 13.53 29.94 15.56 30.60 16.70 32.00 L 12.04 32.00 L 12.04 31.25 Z" />
</g>
<g id="#d87233ff">
<path fill="#d87233" stroke="#d87233" stroke-width="0.09375" opacity="1.00" d=" M 11.74 16.37 C 9.86 17.02 9.41 14.55 10.59 13.53 C 10.96 14.06 11.69 15.12 12.05 15.65 L 11.74 16.37 Z" />
</g>
<g id="#f48e33ff">
<path fill="#f48e33" stroke="#f48e33" stroke-width="0.09375" opacity="1.00" d=" M 6.04 16.51 C 7.69 16.59 7.24 19.24 5.81 19.33 C 4.16 19.27 4.55 16.55 6.04 16.51 Z" />
</g>
<g id="#ff6500ff">
<path fill="#ff6500" stroke="#ff6500" stroke-width="0.09375" opacity="1.00" d=" M 12.69 16.98 C 13.52 16.98 15.19 16.99 16.02 16.99 C 16.49 18.05 16.95 19.12 17.41 20.18 C 15.98 21.45 14.55 22.73 13.04 23.91 C 12.53 24.11 11.53 24.51 11.02 24.71 C 11.32 22.08 11.96 19.51 12.69 16.98 Z" />
</g>
<g id="#c3662eff">
<path fill="#c3662e" stroke="#c3662e" stroke-width="0.09375" opacity="1.00" d=" M 21.08 23.09 C 21.72 21.67 22.30 20.23 22.81 18.76 C 22.72 21.00 22.62 23.24 22.54 25.48 C 21.93 26.21 21.30 26.93 20.67 27.64 C 17.18 29.04 13.48 29.79 9.80 30.51 C 12.69 29.25 15.66 28.15 18.44 26.65 C 19.40 25.52 20.28 24.33 21.08 23.09 Z" />
</g>
<g id="#cc6633ff">
<path fill="#cc6633" stroke="#cc6633" stroke-width="0.09375" opacity="1.00" d=" M 13.04 23.91 C 14.55 22.73 15.98 21.45 17.41 20.18 C 16.96 21.53 16.50 22.88 16.05 24.23 C 14.83 24.30 13.61 24.37 12.39 24.42 L 13.04 23.91 Z" />
</g>
<g id="#ff9932ff">
<path fill="#ff9932" stroke="#ff9932" stroke-width="0.09375" opacity="1.00" d=" M 6.42 23.44 C 10.41 24.56 14.42 25.63 18.44 26.65 C 15.66 28.15 12.69 29.25 9.80 30.51 C 8.63 28.17 7.49 25.82 6.42 23.44 Z" />
</g>
<g id="#ccccffff">
<path fill="#ccccff" stroke="#ccccff" stroke-width="0.09375" opacity="1.00" d=" M 9.33 31.29 C 10.00 31.28 11.36 31.26 12.04 31.25 L 12.04 32.00 L 9.24 32.00 L 9.33 31.29 Z" />
</g>
</svg>
