<?xml version="1.0" encoding="UTF-8" ?>
<!DOCTYPE svg PUBLIC "-//W3C//DTD SVG 1.1//EN" "http://www.w3.org/Graphics/SVG/1.1/DTD/svg11.dtd">
<svg width="32pt" height="32pt" viewBox="0 0 32 32" version="1.1" xmlns="http://www.w3.org/2000/svg">
<g id="#060705f8">
<path fill="#060705" stroke="#060705" stroke-width="0.09375" opacity="0.97" d=" M 14.44 0.00 L 17.50 0.00 C 21.90 3.18 26.55 6.04 30.75 9.49 C 30.77 11.65 28.87 13.25 27.64 14.85 C 27.30 15.21 26.63 15.93 26.30 16.29 C 25.98 16.63 25.34 17.30 25.02 17.64 C 24.69 17.92 24.04 18.48 23.72 18.76 C 23.47 18.97 22.97 19.40 22.72 19.61 L 22.01 20.29 C 21.58 22.76 21.30 25.27 20.64 27.69 C 19.40 29.22 18.03 30.65 16.60 32.00 L 15.52 32.00 C 15.59 30.97 15.20 30.14 14.32 29.49 C 13.43 28.54 12.57 27.56 11.71 26.58 C 11.06 26.92 10.41 27.26 9.77 27.60 C 10.10 24.82 10.16 22.01 10.27 19.21 C 12.75 19.70 15.25 20.07 17.77 20.38 C 22.10 19.36 25.04 15.83 26.55 11.81 C 25.91 7.55 21.70 6.46 18.15 5.63 C 18.84 5.23 20.21 4.43 20.89 4.03 C 17.23 3.90 13.57 3.90 9.91 4.13 C 11.71 4.88 13.51 5.62 15.31 6.36 C 12.56 6.54 9.05 5.63 7.11 8.17 C 4.46 11.17 6.87 15.60 8.77 18.36 C 8.44 18.16 7.80 17.76 7.47 17.56 C 6.63 17.02 5.82 16.44 5.02 15.83 C 3.30 13.91 1.89 11.73 0.64 9.48 C 5.48 6.67 9.70 2.95 14.44 0.00 M 3.11 11.64 C 3.04 14.39 6.89 11.55 4.26 10.80 C 4.81 7.41 -0.04 10.64 3.11 11.64 M 28.28 9.31 C 27.30 9.94 26.58 11.55 27.46 12.54 C 29.55 13.75 30.95 8.40 28.28 9.31 M 14.00 25.79 L 13.05 27.17 C 13.55 27.29 14.55 27.53 15.05 27.65 C 14.61 29.76 18.36 29.05 17.12 27.28 C 17.53 27.24 18.34 27.15 18.74 27.11 C 19.16 26.11 19.57 25.10 19.98 24.10 C 20.16 23.59 20.54 22.57 20.73 22.06 C 18.77 22.95 16.83 23.88 14.97 24.96 C 15.42 23.32 14.93 22.74 13.48 23.23 C 11.17 21.25 11.47 26.96 14.00 25.79 Z" />
</g>
<g id="#bd61edff">
<path fill="#bd61ed" stroke="#bd61ed" stroke-width="0.09375" opacity="1.00" d=" M 9.91 4.13 C 13.57 3.90 17.23 3.90 20.89 4.03 C 20.21 4.43 18.84 5.23 18.15 5.63 C 21.70 6.46 25.91 7.55 26.55 11.81 C 26.05 12.26 25.04 13.16 24.53 13.61 C 22.60 13.73 20.67 13.86 18.74 13.98 C 20.53 12.32 22.35 10.69 24.17 9.05 C 21.31 8.12 18.47 7.13 15.62 6.18 C 16.05 7.63 16.90 10.51 17.33 11.95 C 16.90 12.48 16.05 13.55 15.63 14.08 C 14.88 13.56 14.13 13.05 13.36 12.57 C 12.16 11.94 11.25 12.33 10.63 13.74 C 9.30 13.64 7.97 13.55 6.64 13.46 C 10.01 16.44 13.78 19.02 18.30 19.80 L 17.77 20.38 C 15.25 20.07 12.75 19.70 10.27 19.21 C 9.89 19.00 9.14 18.57 8.77 18.36 C 6.87 15.60 4.46 11.17 7.11 8.17 C 9.05 5.63 12.56 6.54 15.31 6.36 C 13.51 5.62 11.71 4.88 9.91 4.13 M 8.86 8.77 L 9.47 8.84 C 8.71 11.22 13.03 12.29 13.76 10.02 C 14.10 10.18 14.78 10.51 15.12 10.68 C 15.06 10.03 14.93 8.73 14.86 8.08 C 13.36 8.25 10.36 8.60 8.86 8.77 Z" />
</g>
<g id="#140d15ff">
<path fill="#140d15" stroke="#140d15" stroke-width="0.09375" opacity="1.00" d=" M 15.62 6.18 C 18.47 7.13 21.31 8.12 24.17 9.05 C 22.35 10.69 20.53 12.32 18.74 13.98 C 20.67 13.86 22.60 13.73 24.53 13.61 C 22.40 15.62 20.31 17.67 18.30 19.80 C 13.78 19.02 10.01 16.44 6.64 13.46 C 7.97 13.55 9.30 13.64 10.63 13.74 C 11.97 14.17 12.89 13.77 13.36 12.57 C 14.13 13.05 14.88 13.56 15.63 14.08 C 17.33 15.92 18.68 13.39 17.33 11.95 C 16.90 10.51 16.05 7.63 15.62 6.18 M 17.51 9.57 C 17.35 11.61 21.65 11.61 21.49 9.57 C 20.54 8.56 18.46 8.56 17.51 9.57 M 12.57 15.07 C 13.89 16.20 15.22 17.32 16.58 18.40 C 16.96 17.84 17.71 16.71 18.09 16.15 C 16.25 15.81 14.41 15.43 12.57 15.07 Z" />
</g>
<g id="#160b1cff">
<path fill="#160b1c" stroke="#160b1c" stroke-width="0.09375" opacity="1.00" d=" M 8.86 8.77 C 10.36 8.60 13.36 8.25 14.86 8.08 C 14.93 8.73 15.06 10.03 15.12 10.68 C 14.78 10.51 14.10 10.18 13.76 10.02 C 12.43 9.32 10.96 8.99 9.47 8.84 L 8.86 8.77 Z" />
</g>
<g id="#cc66ffff">
<path fill="#cc66ff" stroke="#cc66ff" stroke-width="0.09375" opacity="1.00" d=" M 3.11 11.64 C -0.04 10.64 4.81 7.41 4.26 10.80 C 3.97 11.01 3.40 11.43 3.11 11.64 Z" />
</g>
<g id="#fefefefe">
<path fill="#fefefe" stroke="#fefefe" stroke-width="0.09375" opacity="1.00" d=" M 9.47 8.84 C 10.96 8.99 12.43 9.32 13.76 10.02 C 13.03 12.29 8.71 11.22 9.47 8.84 Z" />
</g>
<g id="#f5f5f5fe">
<path fill="#f5f5f5" stroke="#f5f5f5" stroke-width="0.09375" opacity="1.00" d=" M 17.51 9.57 C 18.46 8.56 20.54 8.56 21.49 9.57 C 21.65 11.61 17.35 11.61 17.51 9.57 Z" />
</g>
<g id="#b666e9fe">
<path fill="#b666e9" stroke="#b666e9" stroke-width="0.09375" opacity="1.00" d=" M 28.28 9.31 C 30.95 8.40 29.55 13.75 27.46 12.54 C 26.58 11.55 27.30 9.94 28.28 9.31 Z" />
</g>
<g id="#9966ccff">
<path fill="#9966cc" stroke="#9966cc" stroke-width="0.09375" opacity="1.00" d=" M 4.26 10.80 C 6.89 11.55 3.04 14.39 3.11 11.64 C 3.40 11.43 3.97 11.01 4.26 10.80 Z" />
<path fill="#9966cc" stroke="#9966cc" stroke-width="0.09375" opacity="1.00" d=" M 10.63 13.74 C 11.25 12.33 12.16 11.94 13.36 12.57 C 12.89 13.77 11.97 14.17 10.63 13.74 Z" />
</g>
<g id="#7f4cb2ff">
<path fill="#7f4cb2" stroke="#7f4cb2" stroke-width="0.09375" opacity="1.00" d=" M 17.33 11.95 C 18.68 13.39 17.33 15.92 15.63 14.08 C 16.05 13.55 16.90 12.48 17.33 11.95 Z" />
</g>
<g id="#9f5fcfff">
<path fill="#9f5fcf" stroke="#9f5fcf" stroke-width="0.09375" opacity="1.00" d=" M 24.53 13.61 C 25.04 13.16 26.05 12.26 26.55 11.81 C 25.04 15.83 22.10 19.36 17.77 20.38 L 18.30 19.80 C 20.31 17.67 22.40 15.62 24.53 13.61 Z" />
</g>
<g id="#ac0000ff">
<path fill="#ac0000" stroke="#ac0000" stroke-width="0.09375" opacity="1.00" d=" M 12.57 15.07 C 14.41 15.43 16.25 15.81 18.09 16.15 C 17.71 16.71 16.96 17.84 16.58 18.40 C 15.22 17.32 13.89 16.20 12.57 15.07 Z" />
</g>
<g id="#314936f0">
<path fill="#314936" stroke="#314936" stroke-width="0.09375" opacity="0.94" d=" M 26.30 16.29 C 26.63 15.93 27.30 15.21 27.64 14.85 C 29.21 16.76 30.59 18.81 31.81 20.96 C 29.10 20.26 26.43 19.43 23.72 18.76 C 24.04 18.48 24.69 17.92 25.02 17.64 C 26.38 18.14 27.80 19.44 29.32 18.88 C 29.70 17.28 27.51 16.60 26.30 16.29 Z" />
</g>
<g id="#3a4c38f1">
<path fill="#3a4c38" stroke="#3a4c38" stroke-width="0.09375" opacity="0.95" d=" M 0.00 18.55 C 1.65 17.59 3.33 16.69 5.02 15.83 C 3.71 17.35 2.38 18.87 1.04 20.37 C 3.19 19.45 5.34 18.51 7.47 17.56 C 7.80 17.76 8.44 18.16 8.77 18.36 C 9.14 18.57 9.89 19.00 10.27 19.21 C 10.16 22.01 10.10 24.82 9.77 27.60 C 9.45 29.08 9.05 30.54 8.63 32.00 L 6.49 32.00 C 7.28 31.12 8.51 29.94 7.96 28.65 C 6.98 28.70 6.25 29.25 5.79 30.29 C 6.42 28.42 7.57 26.81 8.82 25.31 C 7.76 24.76 6.70 24.23 5.63 23.69 C 5.23 25.62 4.81 27.54 4.49 29.48 C 4.14 28.30 3.79 27.11 3.45 25.93 C 2.58 27.97 1.74 30.01 0.76 32.00 L 0.00 32.00 L 0.00 30.24 C 2.00 26.06 5.02 22.50 7.82 18.86 C 5.20 20.05 2.55 21.17 0.00 22.51 L 0.00 18.55 M 9.20 21.31 C 7.74 21.29 7.74 23.71 9.20 23.69 C 10.67 23.74 10.67 21.26 9.20 21.31 Z" />
</g>
<g id="#006d1cff">
<path fill="#006d1c" stroke="#006d1c" stroke-width="0.09375" opacity="1.00" d=" M 5.02 15.83 C 5.82 16.44 6.63 17.02 7.47 17.56 C 5.34 18.51 3.19 19.45 1.04 20.37 C 2.38 18.87 3.71 17.35 5.02 15.83 Z" />
</g>
<g id="#006f15fe">
<path fill="#006f15" stroke="#006f15" stroke-width="0.09375" opacity="1.00" d=" M 26.30 16.29 C 27.51 16.60 29.70 17.28 29.32 18.88 C 27.80 19.44 26.38 18.14 25.02 17.64 C 25.34 17.30 25.98 16.63 26.30 16.29 Z" />
</g>
<g id="#445546ff">
<path fill="#445546" stroke="#445546" stroke-width="0.09375" opacity="1.00" d=" M 20.64 27.69 C 21.30 25.27 21.58 22.76 22.01 20.29 C 22.29 23.34 23.10 26.31 24.03 29.22 C 21.61 26.65 21.51 31.29 23.68 32.00 L 19.06 32.00 C 19.66 30.59 20.20 29.16 20.64 27.69 Z" />
</g>
<g id="#0c6d0cff">
<path fill="#0c6d0c" stroke="#0c6d0c" stroke-width="0.09375" opacity="1.00" d=" M 22.01 20.29 L 22.72 19.61 C 23.39 21.88 24.12 24.12 24.73 26.40 C 24.72 26.97 24.72 28.10 24.71 28.67 L 24.03 29.22 C 23.10 26.31 22.29 23.34 22.01 20.29 Z" />
</g>
<g id="#2d4c37f4">
<path fill="#2d4c37" stroke="#2d4c37" stroke-width="0.09375" opacity="0.96" d=" M 22.72 19.61 C 27.18 22.47 29.26 27.38 31.38 32.00 L 30.30 32.00 C 28.46 29.09 26.86 26.03 25.20 23.01 C 25.09 23.86 24.85 25.56 24.73 26.40 C 24.12 24.12 23.39 21.88 22.72 19.61 Z" />
</g>
<g id="#116a11ff">
<path fill="#116a11" stroke="#116a11" stroke-width="0.09375" opacity="1.00" d=" M 9.20 21.31 C 10.67 21.26 10.67 23.74 9.20 23.69 C 7.74 23.71 7.74 21.29 9.20 21.31 Z" />
</g>
<g id="#c0c0c0ff">
<path fill="#c0c0c0" stroke="#c0c0c0" stroke-width="0.09375" opacity="1.00" d=" M 14.00 25.79 C 11.47 26.96 11.17 21.25 13.48 23.23 C 13.69 23.76 14.12 24.81 14.33 25.34 L 14.00 25.79 Z" />
</g>
<g id="#a90000ff">
<path fill="#a90000" stroke="#a90000" stroke-width="0.09375" opacity="1.00" d=" M 14.97 24.96 C 16.83 23.88 18.77 22.95 20.73 22.06 C 20.54 22.57 20.16 23.59 19.98 24.10 C 17.76 25.32 15.39 26.22 13.05 27.17 L 14.00 25.79 L 14.33 25.34 L 14.97 24.96 Z" />
</g>
<g id="#aaa7a0ff">
<path fill="#aaa7a0" stroke="#aaa7a0" stroke-width="0.09375" opacity="1.00" d=" M 13.48 23.23 C 14.93 22.74 15.42 23.32 14.97 24.96 L 14.33 25.34 C 14.12 24.81 13.69 23.76 13.48 23.23 Z" />
</g>
<g id="#007406ff">
<path fill="#007406" stroke="#007406" stroke-width="0.09375" opacity="1.00" d=" M 25.20 23.01 C 26.86 26.03 28.46 29.09 30.30 32.00 L 26.46 32.00 C 27.77 29.99 27.04 27.24 24.73 26.40 C 24.85 25.56 25.09 23.86 25.20 23.01 Z" />
</g>
<g id="#146226ff">
<path fill="#146226" stroke="#146226" stroke-width="0.09375" opacity="1.00" d=" M 5.63 23.69 C 6.70 24.23 7.76 24.76 8.82 25.31 C 7.57 26.81 6.42 28.42 5.79 30.29 C 5.83 30.72 5.89 31.57 5.93 32.00 L 3.67 32.00 C 3.88 31.37 4.29 30.11 4.49 29.48 C 4.81 27.54 5.23 25.62 5.63 23.69 Z" />
</g>
<g id="#c08800ff">
<path fill="#c08800" stroke="#c08800" stroke-width="0.09375" opacity="1.00" d=" M 13.05 27.17 C 15.39 26.22 17.76 25.32 19.98 24.10 C 19.57 25.10 19.16 26.11 18.74 27.11 C 18.34 27.15 17.53 27.24 17.12 27.28 C 16.60 27.37 15.57 27.56 15.05 27.65 C 14.55 27.53 13.55 27.29 13.05 27.17 Z" />
</g>
<g id="#006c1fff">
<path fill="#006c1f" stroke="#006c1f" stroke-width="0.09375" opacity="1.00" d=" M 3.45 25.93 C 3.79 27.11 4.14 28.30 4.49 29.48 C 3.02 29.71 2.51 30.55 2.96 32.00 L 0.76 32.00 C 1.74 30.01 2.58 27.97 3.45 25.93 Z" />
</g>
<g id="#737373ff">
<path fill="#737373" stroke="#737373" stroke-width="0.09375" opacity="1.00" d=" M 9.77 27.60 C 10.41 27.26 11.06 26.92 11.71 26.58 C 12.57 27.56 13.43 28.54 14.32 29.49 C 14.05 30.12 13.49 31.37 13.21 32.00 L 8.63 32.00 C 9.05 30.54 9.45 29.08 9.77 27.60 Z" />
</g>
<g id="#3a4841fe">
<path fill="#3a4841" stroke="#3a4841" stroke-width="0.09375" opacity="1.00" d=" M 24.73 26.40 C 27.04 27.24 27.77 29.99 26.46 32.00 L 26.14 32.00 C 26.33 30.64 25.85 29.53 24.71 28.67 C 24.72 28.10 24.72 26.97 24.73 26.40 Z" />
</g>
<g id="#aa0000ff">
<path fill="#aa0000" stroke="#aa0000" stroke-width="0.09375" opacity="1.00" d=" M 15.05 27.65 C 15.57 27.56 16.60 27.37 17.12 27.28 C 18.36 29.05 14.61 29.76 15.05 27.65 Z" />
</g>
<g id="#ffad3dff">
<path fill="#ffad3d" stroke="#ffad3d" stroke-width="0.09375" opacity="1.00" d=" M 5.79 30.29 C 6.25 29.25 6.98 28.70 7.96 28.65 C 8.51 29.94 7.28 31.12 6.49 32.00 L 5.93 32.00 C 5.89 31.57 5.83 30.72 5.79 30.29 Z" />
</g>
<g id="#808080ff">
<path fill="#808080" stroke="#808080" stroke-width="0.09375" opacity="1.00" d=" M 16.60 32.00 C 18.03 30.65 19.40 29.22 20.64 27.69 C 20.20 29.16 19.66 30.59 19.06 32.00 L 16.60 32.00 Z" />
</g>
<g id="#d99c36ff">
<path fill="#d99c36" stroke="#d99c36" stroke-width="0.09375" opacity="1.00" d=" M 23.68 32.00 C 21.51 31.29 21.61 26.65 24.03 29.22 C 24.05 29.91 24.10 31.30 24.12 32.00 L 23.68 32.00 Z" />
</g>
<g id="#444444ff">
<path fill="#444444" stroke="#444444" stroke-width="0.09375" opacity="1.00" d=" M 2.96 32.00 C 2.51 30.55 3.02 29.71 4.49 29.48 C 4.29 30.11 3.88 31.37 3.67 32.00 L 2.96 32.00 Z" />
</g>
<g id="#165a38ff">
<path fill="#165a38" stroke="#165a38" stroke-width="0.09375" opacity="1.00" d=" M 24.03 29.22 L 24.71 28.67 C 25.85 29.53 26.33 30.64 26.14 32.00 L 24.12 32.00 C 24.10 31.30 24.05 29.91 24.03 29.22 Z" />
</g>
<g id="#336666ff">
<path fill="#336666" stroke="#336666" stroke-width="0.09375" opacity="1.00" d=" M 14.32 29.49 C 15.20 30.14 15.59 30.97 15.52 32.00 L 13.21 32.00 C 13.49 31.37 14.05 30.12 14.32 29.49 Z" />
</g>
</svg>
