<?xml version="1.0" encoding="UTF-8" ?>
<!DOCTYPE svg PUBLIC "-//W3C//DTD SVG 1.1//EN" "http://www.w3.org/Graphics/SVG/1.1/DTD/svg11.dtd">
<svg width="32pt" height="32pt" viewBox="0 0 32 32" version="1.1" xmlns="http://www.w3.org/2000/svg">
<g id="#060200e7">
<path fill="#060200" stroke="#060200" stroke-width="0.09375" opacity="0.91" d=" M 10.98 0.00 L 19.83 0.00 C 23.41 2.95 26.69 6.28 30.52 8.94 C 32.51 12.85 29.05 15.52 27.12 18.26 C 27.21 17.51 27.38 16.02 27.47 15.28 L 27.63 14.03 C 27.02 8.30 20.98 4.97 15.55 5.49 C 8.28 5.32 3.31 12.99 4.24 19.65 C 4.89 21.41 6.87 22.07 8.28 23.10 C 7.27 26.07 6.29 29.05 5.20 32.00 L 3.18 32.00 C 4.42 29.62 5.74 27.08 5.65 24.32 C 4.08 22.26 1.91 20.79 0.00 19.07 L 0.00 14.56 C 1.90 13.23 3.78 11.88 5.65 10.51 C 4.81 8.74 2.81 6.64 4.17 4.64 C 5.86 2.40 8.52 1.18 10.98 0.00 M 25.97 7.39 C 27.28 9.77 28.73 12.06 30.23 14.32 C 32.54 9.68 28.63 8.62 25.97 7.39 M 2.83 20.60 C 2.93 18.20 2.93 15.80 2.83 13.40 C 0.55 15.49 0.55 18.51 2.83 20.60 Z" />
</g>
<g id="#ff6400ff">
<path fill="#ff6400" stroke="#ff6400" stroke-width="0.09375" opacity="1.00" d=" M 15.55 5.49 C 20.98 4.97 27.02 8.30 27.63 14.03 C 24.16 14.50 20.73 15.25 17.28 15.81 C 17.60 14.78 17.91 13.75 18.21 12.71 C 19.09 10.91 20.16 9.21 21.10 7.44 C 18.93 7.79 16.78 8.25 14.60 8.51 L 14.13 8.55 C 12.38 8.63 10.59 8.53 8.89 9.05 C 9.02 10.83 10.07 12.29 11.26 13.53 C 12.78 14.84 14.39 16.05 15.99 17.26 C 12.32 17.36 8.65 17.46 4.97 17.50 C 6.16 19.32 7.32 21.15 8.28 23.10 C 6.87 22.07 4.89 21.41 4.24 19.65 C 3.31 12.99 8.28 5.32 15.55 5.49 Z" />
</g>
<g id="#fff5efff">
<path fill="#fff5ef" stroke="#fff5ef" stroke-width="0.09375" opacity="1.00" d=" M 14.60 8.51 C 16.78 8.25 18.93 7.79 21.10 7.44 C 20.16 9.21 19.09 10.91 18.21 12.71 C 18.11 11.24 17.98 9.78 17.82 8.31 C 16.75 8.38 15.67 8.44 14.60 8.51 Z" />
</g>
<g id="#fefefdfe">
<path fill="#fefefd" stroke="#fefefd" stroke-width="0.09375" opacity="1.00" d=" M 8.89 9.05 C 10.59 8.53 12.38 8.63 14.13 8.55 C 13.20 8.80 12.27 9.07 11.35 9.34 C 11.34 10.74 11.31 12.14 11.26 13.53 C 10.07 12.29 9.02 10.83 8.89 9.05 Z" />
</g>
<g id="#2a0408fe">
<path fill="#2a0408" stroke="#2a0408" stroke-width="0.09375" opacity="1.00" d=" M 14.60 8.51 C 15.67 8.44 16.75 8.38 17.82 8.31 C 17.98 9.78 18.11 11.24 18.21 12.71 C 17.91 13.75 17.60 14.78 17.28 15.81 C 20.73 15.25 24.16 14.50 27.63 14.03 C 25.22 16.92 22.97 19.94 20.50 22.77 C 21.38 20.26 22.30 17.75 22.95 15.17 C 20.32 16.93 19.15 19.81 20.50 22.77 C 17.01 24.54 13.37 25.98 9.82 27.61 C 9.36 26.09 8.92 24.56 8.28 23.10 C 7.32 21.15 6.16 19.32 4.97 17.50 C 8.65 17.46 12.32 17.36 15.99 17.26 C 14.39 16.05 12.78 14.84 11.26 13.53 C 11.31 12.14 11.34 10.74 11.35 9.34 C 12.27 9.07 13.20 8.80 14.13 8.55 L 14.60 8.51 M 12.58 10.58 C 13.02 12.11 13.47 13.65 14.11 15.11 C 15.86 15.28 17.28 13.86 17.11 12.11 C 15.65 11.47 14.11 11.02 12.58 10.58 M 13.57 18.93 C 13.35 19.58 13.12 20.23 12.89 20.88 C 14.55 21.33 16.21 21.76 17.87 22.19 C 18.32 20.45 18.78 18.72 19.23 16.98 C 17.45 17.91 15.64 18.91 13.57 18.93 M 7.67 18.58 C 9.18 22.53 13.24 23.84 17.05 24.44 C 14.17 22.13 11.39 19.43 7.67 18.58 Z" />
</g>
<g id="#ff5c04ff">
<path fill="#ff5c04" stroke="#ff5c04" stroke-width="0.09375" opacity="1.00" d=" M 25.97 7.39 C 28.63 8.62 32.54 9.68 30.23 14.32 C 28.73 12.06 27.28 9.77 25.97 7.39 Z" />
</g>
<g id="#dd0000ff">
<path fill="#dd0000" stroke="#dd0000" stroke-width="0.09375" opacity="1.00" d=" M 12.58 10.58 C 14.11 11.02 15.65 11.47 17.11 12.11 C 17.28 13.86 15.86 15.28 14.11 15.11 C 13.47 13.65 13.02 12.11 12.58 10.58 Z" />
<path fill="#dd0000" stroke="#dd0000" stroke-width="0.09375" opacity="1.00" d=" M 15.96 32.00 C 18.70 30.85 21.32 29.45 23.96 28.11 C 23.99 28.67 24.05 29.79 24.08 30.36 C 22.55 29.04 20.97 30.79 20.13 32.00 L 15.96 32.00 Z" />
<path fill="#dd0000" stroke="#dd0000" stroke-width="0.09375" opacity="1.00" d=" M 25.08 32.00 C 23.88 29.72 27.81 29.72 26.70 32.00 L 25.08 32.00 Z" />
</g>
<g id="#ff5b05ff">
<path fill="#ff5b05" stroke="#ff5b05" stroke-width="0.09375" opacity="1.00" d=" M 2.83 20.60 C 0.55 18.51 0.55 15.49 2.83 13.40 C 2.93 15.80 2.93 18.20 2.83 20.60 Z" />
</g>
<g id="#fb5b04ff">
<path fill="#fb5b04" stroke="#fb5b04" stroke-width="0.09375" opacity="1.00" d=" M 20.50 22.77 C 22.97 19.94 25.22 16.92 27.63 14.03 L 27.47 15.28 C 26.39 17.53 25.31 19.78 24.23 22.03 C 22.55 23.49 20.78 24.85 18.93 26.08 L 17.99 26.00 C 16.76 25.63 15.72 25.93 14.86 26.90 C 14.42 26.96 13.54 27.09 13.10 27.15 C 11.42 27.19 10.75 27.91 11.09 29.30 C 12.43 30.33 13.90 31.17 15.37 32.00 L 5.20 32.00 C 6.29 29.05 7.27 26.07 8.28 23.10 C 8.92 24.56 9.36 26.09 9.82 27.61 C 13.37 25.98 17.01 24.54 20.50 22.77 Z" />
</g>
<g id="#ff0033ff">
<path fill="#ff0033" stroke="#ff0033" stroke-width="0.09375" opacity="1.00" d=" M 20.50 22.77 C 19.15 19.81 20.32 16.93 22.95 15.17 C 22.30 17.75 21.38 20.26 20.50 22.77 Z" />
<path fill="#ff0033" stroke="#ff0033" stroke-width="0.09375" opacity="1.00" d=" M 7.67 18.58 C 11.39 19.43 14.17 22.13 17.05 24.44 C 13.24 23.84 9.18 22.53 7.67 18.58 Z" />
<path fill="#ff0033" stroke="#ff0033" stroke-width="0.09375" opacity="1.00" d=" M 14.86 26.90 C 15.72 25.93 16.76 25.63 17.99 26.00 C 17.36 27.34 16.32 27.64 14.86 26.90 Z" />
</g>
<g id="#7f0019ff">
<path fill="#7f0019" stroke="#7f0019" stroke-width="0.09375" opacity="1.00" d=" M 24.23 22.03 C 25.31 19.78 26.39 17.53 27.47 15.28 C 27.38 16.02 27.21 17.51 27.12 18.26 C 26.00 19.80 24.86 21.32 23.81 22.91 L 24.23 22.03 Z" />
</g>
<g id="#ff8099ff">
<path fill="#ff8099" stroke="#ff8099" stroke-width="0.09375" opacity="1.00" d=" M 13.57 18.93 C 15.64 18.91 17.45 17.91 19.23 16.98 C 18.78 18.72 18.32 20.45 17.87 22.19 C 16.21 21.76 14.55 21.33 12.89 20.88 C 13.12 20.23 13.35 19.58 13.57 18.93 Z" />
</g>
<g id="#9f001fff">
<path fill="#9f001f" stroke="#9f001f" stroke-width="0.09375" opacity="1.00" d=" M 18.93 26.08 C 20.78 24.85 22.55 23.49 24.23 22.03 L 23.81 22.91 C 23.53 23.47 22.96 24.58 22.68 25.13 C 22.52 25.34 22.20 25.77 22.04 25.98 L 21.28 26.26 C 20.69 26.22 19.52 26.13 18.93 26.08 Z" />
</g>
<g id="#350b02ff">
<path fill="#350b02" stroke="#350b02" stroke-width="0.09375" opacity="1.00" d=" M 22.04 25.98 C 22.20 25.77 22.52 25.34 22.68 25.13 C 24.78 27.45 26.87 29.78 29.07 32.00 L 26.70 32.00 C 27.81 29.72 23.88 29.72 25.08 32.00 L 23.81 32.00 C 23.88 31.59 24.01 30.77 24.08 30.36 C 24.05 29.79 23.99 28.67 23.96 28.11 C 21.32 29.45 18.70 30.85 15.96 32.00 L 15.37 32.00 C 13.90 31.17 12.43 30.33 11.09 29.30 C 12.29 29.15 12.96 28.43 13.10 27.15 C 13.54 27.09 14.42 26.96 14.86 26.90 C 16.32 27.64 17.36 27.34 17.99 26.00 L 18.93 26.08 C 19.52 26.13 20.69 26.22 21.28 26.26 C 18.68 27.23 16.07 28.17 13.46 29.15 C 16.80 29.99 20.34 29.27 22.04 25.98 Z" />
</g>
<g id="#e98300ff">
<path fill="#e98300" stroke="#e98300" stroke-width="0.09375" opacity="1.00" d=" M 21.28 26.26 L 22.04 25.98 C 20.34 29.27 16.80 29.99 13.46 29.15 C 16.07 28.17 18.68 27.23 21.28 26.26 Z" />
</g>
<g id="#ff4411ff">
<path fill="#ff4411" stroke="#ff4411" stroke-width="0.09375" opacity="1.00" d=" M 11.09 29.30 C 10.75 27.91 11.42 27.19 13.10 27.15 C 12.96 28.43 12.29 29.15 11.09 29.30 Z" />
</g>
<g id="#cc8844ff">
<path fill="#cc8844" stroke="#cc8844" stroke-width="0.09375" opacity="1.00" d=" M 20.13 32.00 C 20.97 30.79 22.55 29.04 24.08 30.36 C 24.01 30.77 23.88 31.59 23.81 32.00 L 20.13 32.00 Z" />
</g>
</svg>
