<?xml version="1.0" encoding="UTF-8" ?>
<!DOCTYPE svg PUBLIC "-//W3C//DTD SVG 1.1//EN" "http://www.w3.org/Graphics/SVG/1.1/DTD/svg11.dtd">
<svg width="32pt" height="32pt" viewBox="0 0 32 32" version="1.1" xmlns="http://www.w3.org/2000/svg">
<g id="#0b0e17fd">
<path fill="#0b0e17" stroke="#0b0e17" stroke-width="0.09375" opacity="1.00" d=" M 16.06 0.00 L 21.80 0.00 C 25.73 1.66 29.03 4.44 32.00 7.45 L 32.00 16.03 C 29.79 20.18 28.72 25.04 25.68 28.68 C 21.91 31.13 17.10 31.02 12.81 32.00 L 11.52 32.00 C 11.78 30.65 11.61 28.51 9.90 28.25 C 8.16 28.86 9.56 31.09 10.31 32.00 L 9.44 32.00 C 7.93 29.10 6.68 26.07 5.40 23.06 C 3.58 25.86 1.75 28.65 0.00 31.49 L 0.00 29.92 C 2.93 24.60 5.10 18.92 6.09 12.90 C 7.15 7.29 10.67 2.19 16.06 0.00 M 7.98 9.26 L 7.34 8.76 C 10.32 13.23 14.59 16.77 19.46 19.02 C 19.14 18.72 18.51 18.12 18.19 17.82 C 18.69 16.30 19.19 14.78 19.69 13.25 C 14.63 12.77 15.90 8.20 15.34 4.89 C 17.08 5.28 20.56 6.06 22.30 6.45 C 20.39 8.60 25.42 10.09 24.65 7.06 C 26.57 7.52 28.54 7.72 30.49 8.00 C 28.09 5.47 25.82 2.40 22.00 1.97 C 15.81 -0.91 10.98 4.72 7.98 9.26 M 15.93 6.77 C 16.01 8.36 16.10 9.96 16.18 11.56 C 18.30 10.65 20.45 9.78 22.53 8.78 C 21.28 9.08 20.03 9.38 18.77 9.69 C 19.50 8.39 20.23 7.10 20.96 5.80 C 19.28 6.11 17.60 6.43 15.93 6.77 M 28.52 8.74 C 27.93 10.14 27.34 11.55 26.76 12.97 C 27.67 12.93 29.50 12.86 30.41 12.82 C 29.79 11.46 29.16 10.09 28.52 8.74 M 20.13 11.85 L 20.59 12.69 C 20.48 14.69 20.25 16.71 20.52 18.71 C 21.61 20.59 24.13 20.44 25.98 20.98 L 26.29 21.37 C 26.27 18.13 26.22 14.89 26.15 11.66 C 24.14 11.67 22.13 11.74 20.13 11.85 M 5.91 21.93 L 6.04 21.34 C 8.92 27.05 14.88 29.83 21.00 30.51 C 22.76 29.30 24.53 28.11 26.29 26.90 C 22.30 26.69 18.06 27.16 14.27 25.70 C 11.03 23.69 9.35 19.98 6.94 17.12 C 7.31 15.33 7.53 13.51 7.75 11.69 C 6.88 15.05 6.37 18.49 5.91 21.93 M 8.36 14.01 C 9.53 18.34 11.10 23.55 15.95 25.08 C 19.81 27.36 24.43 25.21 27.62 22.72 C 24.82 23.53 22.08 24.79 19.12 24.81 C 13.61 23.68 11.46 18.02 8.36 14.01 M 27.88 13.94 C 28.02 15.74 28.18 17.54 28.34 19.34 C 29.40 17.66 30.41 15.95 31.38 14.22 C 30.50 14.15 28.75 14.01 27.88 13.94 Z" />
</g>
<g id="#3366cbff">
<path fill="#3366cb" stroke="#3366cb" stroke-width="0.09375" opacity="1.00" d=" M 7.98 9.26 C 10.98 4.72 15.81 -0.91 22.00 1.97 C 25.82 2.40 28.09 5.47 30.49 8.00 C 28.54 7.72 26.57 7.52 24.65 7.06 C 23.88 6.83 23.09 6.63 22.30 6.45 C 20.56 6.06 17.08 5.28 15.34 4.89 C 15.90 8.20 14.63 12.77 19.69 13.25 C 19.19 14.78 18.69 16.30 18.19 17.82 C 14.89 14.85 11.48 12.00 7.98 9.26 Z" />
</g>
<g id="#f3f3f3ff">
<path fill="#f3f3f3" stroke="#f3f3f3" stroke-width="0.09375" opacity="1.00" d=" M 15.93 6.77 C 17.60 6.43 19.28 6.11 20.96 5.80 C 20.23 7.10 19.50 8.39 18.77 9.69 C 20.03 9.38 21.28 9.08 22.53 8.78 C 20.45 9.78 18.30 10.65 16.18 11.56 C 16.10 9.96 16.01 8.36 15.93 6.77 Z" />
</g>
<g id="#3366a3ff">
<path fill="#3366a3" stroke="#3366a3" stroke-width="0.09375" opacity="1.00" d=" M 22.30 6.45 C 23.09 6.63 23.88 6.83 24.65 7.06 C 25.42 10.09 20.39 8.60 22.30 6.45 Z" />
<path fill="#3366a3" stroke="#3366a3" stroke-width="0.09375" opacity="1.00" d=" M 7.34 8.76 L 7.98 9.26 C 11.48 12.00 14.89 14.85 18.19 17.82 C 18.51 18.12 19.14 18.72 19.46 19.02 C 14.59 16.77 10.32 13.23 7.34 8.76 Z" />
</g>
<g id="#ffffffff">
<path fill="#ffffff" stroke="#ffffff" stroke-width="0.09375" opacity="1.00" d=" M 28.52 8.74 C 29.16 10.09 29.79 11.46 30.41 12.82 C 29.50 12.86 27.67 12.93 26.76 12.97 C 27.34 11.55 27.93 10.14 28.52 8.74 Z" />
</g>
<g id="#ff65ffff">
<path fill="#ff65ff" stroke="#ff65ff" stroke-width="0.09375" opacity="1.00" d=" M 20.13 11.85 C 22.13 11.74 24.14 11.67 26.15 11.66 C 26.22 14.89 26.27 18.13 26.29 21.37 L 25.98 20.98 C 23.84 18.46 22.13 15.61 20.59 12.69 L 20.13 11.85 Z" />
</g>
<g id="#3366adff">
<path fill="#3366ad" stroke="#3366ad" stroke-width="0.09375" opacity="1.00" d=" M 5.91 21.93 C 6.37 18.49 6.88 15.05 7.75 11.69 C 7.53 13.51 7.31 15.33 6.94 17.12 C 6.65 18.53 6.36 19.93 6.04 21.34 L 5.91 21.93 Z" />
</g>
<g id="#cc66ccff">
<path fill="#cc66cc" stroke="#cc66cc" stroke-width="0.09375" opacity="1.00" d=" M 20.59 12.69 C 22.13 15.61 23.84 18.46 25.98 20.98 C 24.13 20.44 21.61 20.59 20.52 18.71 C 20.25 16.71 20.48 14.69 20.59 12.69 Z" />
</g>
<g id="#f165f1ff">
<path fill="#f165f1" stroke="#f165f1" stroke-width="0.09375" opacity="1.00" d=" M 8.36 14.01 C 11.46 18.02 13.61 23.68 19.12 24.81 C 22.08 24.79 24.82 23.53 27.62 22.72 C 24.43 25.21 19.81 27.36 15.95 25.08 C 11.10 23.55 9.53 18.34 8.36 14.01 Z" />
</g>
<g id="#3366c2ff">
<path fill="#3366c2" stroke="#3366c2" stroke-width="0.09375" opacity="1.00" d=" M 27.88 13.94 C 28.75 14.01 30.50 14.15 31.38 14.22 C 30.41 15.95 29.40 17.66 28.34 19.34 C 28.18 17.54 28.02 15.74 27.88 13.94 Z" />
</g>
<g id="#3265cbff">
<path fill="#3265cb" stroke="#3265cb" stroke-width="0.09375" opacity="1.00" d=" M 6.94 17.12 C 9.35 19.98 11.03 23.69 14.27 25.70 C 18.06 27.16 22.30 26.69 26.29 26.90 C 24.53 28.11 22.76 29.30 21.00 30.51 C 15.75 27.89 10.85 24.68 6.04 21.34 C 6.36 19.93 6.65 18.53 6.94 17.12 Z" />
</g>
<g id="#33669dff">
<path fill="#33669d" stroke="#33669d" stroke-width="0.09375" opacity="1.00" d=" M 6.04 21.34 C 10.85 24.68 15.75 27.89 21.00 30.51 C 14.88 29.83 8.92 27.05 6.04 21.34 Z" />
</g>
<g id="#3265caff">
<path fill="#3265ca" stroke="#3265ca" stroke-width="0.09375" opacity="1.00" d=" M 0.00 31.49 C 1.75 28.65 3.58 25.86 5.40 23.06 C 6.68 26.07 7.93 29.10 9.44 32.00 L 6.73 32.00 C 7.70 31.01 7.62 30.11 6.47 29.28 C 5.79 28.72 4.50 27.24 3.71 28.42 C 3.33 29.89 4.63 31.03 5.50 32.00 L 0.00 32.00 L 0.00 31.49 Z" />
</g>
<g id="#070e15fe">
<path fill="#070e15" stroke="#070e15" stroke-width="0.09375" opacity="1.00" d=" M 3.71 28.42 C 4.50 27.24 5.79 28.72 6.47 29.28 C 6.34 29.96 6.08 31.32 5.95 32.00 L 5.50 32.00 C 4.63 31.03 3.33 29.89 3.71 28.42 Z" />
</g>
<g id="#3366b6fe">
<path fill="#3366b6" stroke="#3366b6" stroke-width="0.09375" opacity="1.00" d=" M 10.31 32.00 C 9.56 31.09 8.16 28.86 9.90 28.25 C 11.61 28.51 11.78 30.65 11.52 32.00 L 10.31 32.00 Z" />
</g>
<g id="#336699ff">
<path fill="#336699" stroke="#336699" stroke-width="0.09375" opacity="1.00" d=" M 6.47 29.28 C 7.62 30.11 7.70 31.01 6.73 32.00 L 5.95 32.00 C 6.08 31.32 6.34 29.96 6.47 29.28 Z" />
</g>
</svg>
