<?xml version="1.0" encoding="UTF-8" ?>
<!DOCTYPE svg PUBLIC "-//W3C//DTD SVG 1.1//EN" "http://www.w3.org/Graphics/SVG/1.1/DTD/svg11.dtd">
<svg width="32pt" height="32pt" viewBox="0 0 32 32" version="1.1" xmlns="http://www.w3.org/2000/svg">
<g id="#0b0a01c6">
<path fill="#0b0a01" stroke="#0b0a01" stroke-width="0.09375" opacity="0.78" d=" M 8.21 0.00 L 22.52 0.00 C 24.47 3.16 26.89 6.29 27.50 10.04 C 27.22 12.83 25.81 15.33 24.70 17.86 C 26.61 19.39 28.49 20.95 30.37 22.51 C 28.82 22.68 25.71 23.03 24.15 23.20 C 24.67 25.30 25.16 27.41 25.63 29.53 C 23.38 28.50 21.14 27.44 18.90 26.37 C 18.49 28.24 18.10 30.12 17.72 32.00 L 15.68 32.00 C 14.97 30.06 14.34 28.09 13.69 26.13 C 12.38 26.72 11.07 27.31 9.76 27.92 C 11.25 26.64 12.66 25.28 14.09 23.94 C 14.89 26.23 15.67 28.53 16.43 30.84 C 17.27 28.53 18.11 26.22 18.97 23.92 C 20.66 25.29 22.33 26.66 24.02 28.02 C 23.38 26.10 22.72 24.20 22.06 22.29 C 23.66 22.00 26.86 21.40 28.46 21.11 C 25.74 20.31 23.02 19.36 20.16 19.33 C 18.38 19.36 15.23 18.50 14.51 20.52 C 15.48 22.03 17.69 21.14 18.95 20.53 C 18.04 21.43 17.12 22.32 16.20 23.21 C 13.89 21.70 11.60 20.18 9.30 18.67 C 8.08 19.38 6.87 20.09 5.65 20.79 C 9.92 21.52 9.09 25.33 9.21 28.19 C 8.64 28.46 7.50 29.00 6.93 29.27 C 7.45 27.19 8.01 25.12 8.59 23.06 C 7.15 22.96 4.28 22.77 2.85 22.68 C 4.32 21.10 5.79 19.52 7.26 17.93 C 6.20 15.37 4.77 12.85 4.61 10.03 C 5.07 6.47 6.92 3.30 8.21 0.00 M 9.00 0.89 C 8.69 2.56 8.39 4.24 8.11 5.91 C 8.79 5.56 10.13 4.84 10.80 4.48 C 8.56 6.29 6.33 8.10 4.20 10.03 C 6.38 12.67 8.36 15.60 11.31 17.48 L 10.70 16.32 C 13.61 19.61 18.37 19.52 21.44 16.50 L 20.94 17.49 C 23.83 15.64 26.75 12.97 26.79 9.26 C 25.14 7.00 22.45 5.91 20.12 4.53 C 21.01 4.81 22.79 5.39 23.68 5.67 C 23.28 2.53 20.89 0.91 18.01 0.31 C 18.09 1.11 18.26 2.71 18.35 3.51 C 17.17 2.76 16.08 1.89 14.96 1.05 C 14.21 1.67 13.47 2.29 12.72 2.91 C 13.10 2.58 13.86 1.92 14.24 1.59 C 12.49 1.35 10.75 1.12 9.00 0.89 Z" />
</g>
<g id="#c8c8c8fe">
<path fill="#c8c8c8" stroke="#c8c8c8" stroke-width="0.09375" opacity="1.00" d=" M 9.00 0.89 C 10.75 1.12 12.49 1.35 14.24 1.59 C 13.86 1.92 13.10 2.58 12.72 2.91 C 12.09 3.44 11.45 3.97 10.80 4.48 C 10.13 4.84 8.79 5.56 8.11 5.91 C 8.39 4.24 8.69 2.56 9.00 0.89 M 10.17 2.17 C 9.25 6.17 14.17 1.25 10.17 2.17 Z" />
</g>
<g id="#97c900ff">
<path fill="#97c900" stroke="#97c900" stroke-width="0.09375" opacity="1.00" d=" M 12.72 2.91 C 13.47 2.29 14.21 1.67 14.96 1.05 C 16.08 1.89 17.17 2.76 18.35 3.51 C 18.79 3.76 19.68 4.27 20.12 4.53 C 22.45 5.91 25.14 7.00 26.79 9.26 C 26.75 12.97 23.83 15.64 20.94 17.49 L 21.44 16.50 C 22.63 14.14 23.94 11.84 25.26 9.55 C 19.53 13.35 12.43 13.28 6.67 9.57 C 8.09 11.77 9.45 14.01 10.70 16.32 L 11.31 17.48 C 8.36 15.60 6.38 12.67 4.20 10.03 C 6.33 8.10 8.56 6.29 10.80 4.48 C 11.45 3.97 12.09 3.44 12.72 2.91 Z" />
</g>
<g id="#dadadafe">
<path fill="#dadada" stroke="#dadada" stroke-width="0.09375" opacity="1.00" d=" M 18.01 0.31 C 20.89 0.91 23.28 2.53 23.68 5.67 C 22.79 5.39 21.01 4.81 20.12 4.53 C 19.68 4.27 18.79 3.76 18.35 3.51 C 18.26 2.71 18.09 1.11 18.01 0.31 M 19.54 2.27 C 18.62 3.41 20.58 4.87 21.46 3.73 C 22.38 2.59 20.42 1.13 19.54 2.27 Z" />
</g>
<g id="#000000ff">
<path fill="#000000" stroke="#000000" stroke-width="0.09375" opacity="1.00" d=" M 10.17 2.17 C 14.17 1.25 9.25 6.17 10.17 2.17 Z" />
<path fill="#000000" stroke="#000000" stroke-width="0.09375" opacity="1.00" d=" M 19.54 2.27 C 20.42 1.13 22.38 2.59 21.46 3.73 C 20.58 4.87 18.62 3.41 19.54 2.27 Z" />
</g>
<g id="#331c0bff">
<path fill="#331c0b" stroke="#331c0b" stroke-width="0.09375" opacity="1.00" d=" M 6.67 9.57 C 12.43 13.28 19.53 13.35 25.26 9.55 C 23.94 11.84 22.63 14.14 21.44 16.50 C 21.40 16.19 21.34 15.57 21.31 15.27 C 17.44 15.28 13.58 15.44 9.71 15.51 C 9.96 15.71 10.46 16.11 10.70 16.32 C 9.45 14.01 8.09 11.77 6.67 9.57 M 14.00 13.99 C 14.00 14.49 14.00 15.51 14.00 16.01 C 15.33 16.01 16.67 16.01 18.00 16.01 C 18.00 15.51 18.00 14.49 18.00 13.99 C 16.67 13.99 15.33 13.99 14.00 13.99 Z" />
</g>
<g id="#cc3333ff">
<path fill="#cc3333" stroke="#cc3333" stroke-width="0.09375" opacity="1.00" d=" M 9.71 15.51 C 13.58 15.44 17.44 15.28 21.31 15.27 C 21.34 15.57 21.40 16.19 21.44 16.50 C 18.37 19.52 13.61 19.61 10.70 16.32 C 10.46 16.11 9.96 15.71 9.71 15.51 Z" />
</g>
<g id="#ff6666ff">
<path fill="#ff6666" stroke="#ff6666" stroke-width="0.09375" opacity="1.00" d=" M 14.00 13.99 C 15.33 13.99 16.67 13.99 18.00 13.99 C 18.00 14.49 18.00 15.51 18.00 16.01 C 16.67 16.01 15.33 16.01 14.00 16.01 C 14.00 15.51 14.00 14.49 14.00 13.99 Z" />
</g>
<g id="#c9fc00fe">
<path fill="#c9fc00" stroke="#c9fc00" stroke-width="0.09375" opacity="1.00" d=" M 9.30 18.67 C 11.60 20.18 13.89 21.70 16.20 23.21 C 17.12 22.32 18.04 21.43 18.95 20.53 C 19.25 20.23 19.85 19.63 20.16 19.33 C 23.02 19.36 25.74 20.31 28.46 21.11 C 26.86 21.40 23.66 22.00 22.06 22.29 C 22.72 24.20 23.38 26.10 24.02 28.02 C 22.33 26.66 20.66 25.29 18.97 23.92 C 18.11 26.22 17.27 28.53 16.43 30.84 C 15.67 28.53 14.89 26.23 14.09 23.94 C 12.66 25.28 11.25 26.64 9.76 27.92 L 9.21 28.19 C 9.09 25.33 9.92 21.52 5.65 20.79 C 6.87 20.09 8.08 19.38 9.30 18.67 Z" />
</g>
<g id="#577400fe">
<path fill="#577400" stroke="#577400" stroke-width="0.09375" opacity="1.00" d=" M 14.51 20.52 C 15.23 18.50 18.38 19.36 20.16 19.33 C 19.85 19.63 19.25 20.23 18.95 20.53 C 17.69 21.14 15.48 22.03 14.51 20.52 Z" />
</g>
</svg>
