<?xml version="1.0" encoding="UTF-8" ?>
<!DOCTYPE svg PUBLIC "-//W3C//DTD SVG 1.1//EN" "http://www.w3.org/Graphics/SVG/1.1/DTD/svg11.dtd">
<svg width="32pt" height="32pt" viewBox="0 0 32 32" version="1.1" xmlns="http://www.w3.org/2000/svg">
<g id="#061803fb">
<path fill="#061803" stroke="#061803" stroke-width="0.09375" opacity="1.00" d=" M 15.30 0.00 L 16.85 0.00 C 21.67 0.94 26.55 2.93 29.39 7.15 C 28.90 7.01 27.92 6.74 27.43 6.61 C 25.00 5.98 22.56 5.39 20.12 4.81 C 20.77 5.48 21.42 6.15 22.07 6.83 C 21.47 6.80 20.28 6.76 19.68 6.74 C 18.09 6.68 16.50 6.60 14.92 6.53 C 18.11 5.37 21.21 3.98 24.35 2.67 C 18.62 3.00 12.57 2.91 7.57 6.15 C 7.25 6.67 6.59 7.71 6.26 8.23 C 4.90 5.22 2.58 9.62 5.88 8.91 C 5.57 9.49 4.96 10.64 4.66 11.22 C 8.82 8.88 13.49 7.49 18.20 9.06 C 17.93 9.47 17.37 10.30 17.09 10.72 C 16.74 10.84 16.05 11.10 15.71 11.23 C 14.57 11.61 13.42 11.95 12.27 12.30 C 12.34 10.71 12.41 9.12 12.48 7.53 C 11.08 9.29 9.71 11.08 8.38 12.89 C 6.13 12.35 3.89 11.80 1.64 11.26 C 1.77 15.30 1.59 20.15 5.00 23.02 C 9.04 25.70 13.93 26.68 18.67 27.24 C 14.68 28.19 10.96 29.88 7.48 32.00 L 5.31 32.00 C 6.92 30.84 8.46 29.59 9.98 28.32 C 6.08 25.49 2.24 22.32 0.00 17.95 L 0.00 13.30 C 3.18 7.15 8.47 1.81 15.30 0.00 Z" />
</g>
<g id="#007900ff">
<path fill="#007900" stroke="#007900" stroke-width="0.09375" opacity="1.00" d=" M 7.57 6.15 C 12.57 2.91 18.62 3.00 24.35 2.67 C 21.21 3.98 18.11 5.37 14.92 6.53 C 14.01 6.51 13.11 6.50 12.20 6.48 C 11.81 4.21 8.77 3.75 7.78 5.85 L 7.57 6.15 Z" />
</g>
<g id="#001500ff">
<path fill="#001500" stroke="#001500" stroke-width="0.09375" opacity="1.00" d=" M 7.78 5.85 C 8.77 3.75 11.81 4.21 12.20 6.48 C 10.70 6.53 9.18 6.44 7.78 5.85 Z" />
</g>
<g id="#740000ff">
<path fill="#740000" stroke="#740000" stroke-width="0.09375" opacity="1.00" d=" M 20.12 4.81 C 22.56 5.39 25.00 5.98 27.43 6.61 L 27.23 7.38 C 26.84 8.45 26.44 9.51 26.03 10.58 C 24.86 9.48 23.67 8.40 22.51 7.29 L 22.07 6.83 C 21.42 6.15 20.77 5.48 20.12 4.81 Z" />
</g>
<g id="#720000fe">
<path fill="#720000" stroke="#720000" stroke-width="0.09375" opacity="1.00" d=" M 7.57 6.15 L 7.78 5.85 C 9.18 6.44 10.70 6.53 12.20 6.48 C 13.11 6.50 14.01 6.51 14.92 6.53 C 16.50 6.60 18.09 6.68 19.68 6.74 C 19.31 7.32 18.57 8.48 18.20 9.06 C 13.49 7.49 8.82 8.88 4.66 11.22 C 4.96 10.64 5.57 9.49 5.88 8.91 L 6.26 8.23 C 6.59 7.71 7.25 6.67 7.57 6.15 Z" />
</g>
<g id="#008000ff">
<path fill="#008000" stroke="#008000" stroke-width="0.09375" opacity="1.00" d=" M 5.88 8.91 C 2.58 9.62 4.90 5.22 6.26 8.23 L 5.88 8.91 Z" />
</g>
<g id="#ffffffff">
<path fill="#ffffff" stroke="#ffffff" stroke-width="0.09375" opacity="1.00" d=" M 19.68 6.74 C 20.28 6.76 21.47 6.80 22.07 6.83 L 22.51 7.29 C 23.28 8.38 24.00 9.51 24.73 10.63 C 22.18 10.65 19.64 10.68 17.09 10.72 C 17.37 10.30 17.93 9.47 18.20 9.06 C 18.57 8.48 19.31 7.32 19.68 6.74 M 19.17 9.17 C 18.65 10.80 19.20 11.35 20.83 10.83 C 21.35 9.20 20.80 8.65 19.17 9.17 Z" />
<path fill="#ffffff" stroke="#ffffff" stroke-width="0.09375" opacity="1.00" d=" M 8.38 12.89 C 9.71 11.08 11.08 9.29 12.48 7.53 C 12.41 9.12 12.34 10.71 12.27 12.30 C 13.42 11.95 14.57 11.61 15.71 11.23 C 14.64 12.10 13.60 13.00 12.56 13.90 C 11.16 13.57 9.77 13.23 8.38 12.89 Z" />
</g>
<g id="#170000ff">
<path fill="#170000" stroke="#170000" stroke-width="0.09375" opacity="1.00" d=" M 22.51 7.29 C 23.67 8.40 24.86 9.48 26.03 10.58 C 26.44 9.51 26.84 8.45 27.23 7.38 C 27.02 8.45 26.83 9.53 26.65 10.61 C 26.01 10.62 25.37 10.63 24.73 10.63 C 24.00 9.51 23.28 8.38 22.51 7.29 Z" />
</g>
<g id="#007f00ff">
<path fill="#007f00" stroke="#007f00" stroke-width="0.09375" opacity="1.00" d=" M 27.43 6.61 C 27.92 6.74 28.90 7.01 29.39 7.15 L 29.85 7.76 C 29.26 12.22 30.63 17.67 27.41 21.34 C 25.41 23.75 22.81 25.53 20.33 27.39 C 22.18 28.94 24.00 30.53 25.92 32.00 L 7.48 32.00 C 10.96 29.88 14.68 28.19 18.67 27.24 C 13.93 26.68 9.04 25.70 5.00 23.02 C 1.59 20.15 1.77 15.30 1.64 11.26 C 3.89 11.80 6.13 12.35 8.38 12.89 C 9.77 13.23 11.16 13.57 12.56 13.90 C 13.60 13.00 14.64 12.10 15.71 11.23 C 16.05 11.10 16.74 10.84 17.09 10.72 C 19.64 10.68 22.18 10.65 24.73 10.63 C 25.37 10.63 26.01 10.62 26.65 10.61 C 26.83 9.53 27.02 8.45 27.23 7.38 L 27.43 6.61 M 2.46 18.58 C 6.95 21.25 11.15 25.72 16.97 24.09 C 24.47 25.59 28.07 18.05 29.30 12.18 C 21.38 17.45 11.41 16.62 2.46 18.58 Z" />
</g>
<g id="#001400f9">
<path fill="#001400" stroke="#001400" stroke-width="0.09375" opacity="0.98" d=" M 29.85 7.76 C 30.63 8.92 31.34 10.13 32.00 11.36 L 32.00 12.29 C 30.06 11.89 30.06 15.11 32.00 14.71 L 32.00 17.61 C 29.49 21.37 26.33 24.62 23.12 27.77 C 24.39 29.19 25.67 30.62 27.00 32.00 L 25.92 32.00 C 24.00 30.53 22.18 28.94 20.33 27.39 C 22.81 25.53 25.41 23.75 27.41 21.34 C 30.63 17.67 29.26 12.22 29.85 7.76 Z" />
</g>
<g id="#000000ff">
<path fill="#000000" stroke="#000000" stroke-width="0.09375" opacity="1.00" d=" M 19.17 9.17 C 20.80 8.65 21.35 9.20 20.83 10.83 C 19.20 11.35 18.65 10.80 19.17 9.17 Z" />
</g>
<g id="#000100ff">
<path fill="#000100" stroke="#000100" stroke-width="0.09375" opacity="1.00" d=" M 2.46 18.58 C 11.41 16.62 21.38 17.45 29.30 12.18 C 28.07 18.05 24.47 25.59 16.97 24.09 C 11.15 25.72 6.95 21.25 2.46 18.58 M 11.46 17.87 C 12.55 19.25 13.69 20.61 14.84 21.96 C 17.28 20.92 19.67 19.77 21.91 18.34 L 22.75 18.26 C 19.00 17.88 15.22 17.85 11.46 17.87 Z" />
</g>
<g id="#8c0000ff">
<path fill="#8c0000" stroke="#8c0000" stroke-width="0.09375" opacity="1.00" d=" M 11.46 17.87 C 15.22 17.85 19.00 17.88 22.75 18.26 L 21.91 18.34 C 19.31 18.59 16.70 18.80 14.10 19.03 C 14.29 19.76 14.65 21.23 14.84 21.96 C 13.69 20.61 12.55 19.25 11.46 17.87 Z" />
</g>
<g id="#cf0000ff">
<path fill="#cf0000" stroke="#cf0000" stroke-width="0.09375" opacity="1.00" d=" M 14.10 19.03 C 16.70 18.80 19.31 18.59 21.91 18.34 C 19.67 19.77 17.28 20.92 14.84 21.96 C 14.65 21.23 14.29 19.76 14.10 19.03 Z" />
</g>
</svg>
